<mxfile host="app.diagrams.net" modified="2024-07-05T01:58:27.674Z" agent="Mozilla/5.0 (Windows NT 10.0; Win64; x64) AppleWebKit/537.36 (KHTML, like Gecko) Chrome/126.0.0.0 Safari/537.36" etag="6dMT1tuL0CAMDZciUOEt" version="24.6.4" type="device">
  <diagram name="Page-1" id="1uPHbWjP7XGhoeDmrcKO">
    <mxGraphModel dx="2228" dy="1184" grid="0" gridSize="10" guides="1" tooltips="1" connect="1" arrows="1" fold="1" page="0" pageScale="1" pageWidth="850" pageHeight="1100" background="#ffffff" math="0" shadow="1">
      <root>
        <mxCell id="0" />
        <mxCell id="1" parent="0" />
        <mxCell id="lziRZW3VLnHY5NK0qnCb-4" value="`&amp;nbsp;" style="edgeStyle=orthogonalEdgeStyle;rounded=0;orthogonalLoop=1;jettySize=auto;html=1;labelBorderColor=none;fontColor=default;" parent="1" source="lziRZW3VLnHY5NK0qnCb-1" target="lziRZW3VLnHY5NK0qnCb-3" edge="1">
          <mxGeometry relative="1" as="geometry" />
        </mxCell>
        <mxCell id="lziRZW3VLnHY5NK0qnCb-1" value="Start" style="ellipse;whiteSpace=wrap;html=1;fontStyle=1;labelBorderColor=none;fillColor=#f8cecc;strokeColor=#b85450;" parent="1" vertex="1">
          <mxGeometry x="145" y="170" width="90" height="60" as="geometry" />
        </mxCell>
        <mxCell id="lziRZW3VLnHY5NK0qnCb-6" value="" style="edgeStyle=orthogonalEdgeStyle;rounded=0;orthogonalLoop=1;jettySize=auto;html=1;labelBorderColor=none;fontColor=default;" parent="1" source="lziRZW3VLnHY5NK0qnCb-3" target="lziRZW3VLnHY5NK0qnCb-5" edge="1">
          <mxGeometry relative="1" as="geometry" />
        </mxCell>
        <mxCell id="lziRZW3VLnHY5NK0qnCb-3" value="Upload Video File" style="shape=parallelogram;perimeter=parallelogramPerimeter;whiteSpace=wrap;html=1;fixedSize=1;labelBorderColor=none;fontColor=default;" parent="1" vertex="1">
          <mxGeometry x="110" y="260" width="160" height="40" as="geometry" />
        </mxCell>
        <mxCell id="lziRZW3VLnHY5NK0qnCb-8" value="" style="edgeStyle=orthogonalEdgeStyle;rounded=0;orthogonalLoop=1;jettySize=auto;html=1;labelBorderColor=none;fontColor=default;" parent="1" source="lziRZW3VLnHY5NK0qnCb-5" target="lziRZW3VLnHY5NK0qnCb-7" edge="1">
          <mxGeometry relative="1" as="geometry" />
        </mxCell>
        <mxCell id="lziRZW3VLnHY5NK0qnCb-5" value="Uploading Process..." style="rounded=0;whiteSpace=wrap;html=1;labelBorderColor=none;fontColor=default;" parent="1" vertex="1">
          <mxGeometry x="125" y="340" width="130" height="30" as="geometry" />
        </mxCell>
        <mxCell id="lziRZW3VLnHY5NK0qnCb-10" value="" style="edgeStyle=orthogonalEdgeStyle;rounded=0;orthogonalLoop=1;jettySize=auto;html=1;labelBorderColor=none;fontColor=default;" parent="1" source="lziRZW3VLnHY5NK0qnCb-7" target="lziRZW3VLnHY5NK0qnCb-9" edge="1">
          <mxGeometry relative="1" as="geometry" />
        </mxCell>
        <mxCell id="lziRZW3VLnHY5NK0qnCb-7" value="Video Uploaded&lt;br&gt;(Ready for Python Running)" style="shape=parallelogram;perimeter=parallelogramPerimeter;whiteSpace=wrap;html=1;fixedSize=1;labelBorderColor=none;fontColor=default;" parent="1" vertex="1">
          <mxGeometry x="85" y="400" width="210" height="40" as="geometry" />
        </mxCell>
        <mxCell id="lziRZW3VLnHY5NK0qnCb-28" value="" style="edgeStyle=orthogonalEdgeStyle;rounded=0;orthogonalLoop=1;jettySize=auto;html=1;" parent="1" source="lziRZW3VLnHY5NK0qnCb-9" target="lziRZW3VLnHY5NK0qnCb-26" edge="1">
          <mxGeometry relative="1" as="geometry" />
        </mxCell>
        <mxCell id="lziRZW3VLnHY5NK0qnCb-31" style="edgeStyle=orthogonalEdgeStyle;rounded=0;orthogonalLoop=1;jettySize=auto;html=1;" parent="1" source="lziRZW3VLnHY5NK0qnCb-9" target="lziRZW3VLnHY5NK0qnCb-30" edge="1">
          <mxGeometry relative="1" as="geometry">
            <Array as="points">
              <mxPoint x="290" y="490" />
              <mxPoint x="290" y="460" />
            </Array>
          </mxGeometry>
        </mxCell>
        <mxCell id="lziRZW3VLnHY5NK0qnCb-9" value="&lt;b&gt;Python Running for Video Predicting&lt;/b&gt;" style="rounded=0;whiteSpace=wrap;html=1;fillColor=#fff2cc;strokeColor=#d6b656;labelBorderColor=none;fontColor=default;" parent="1" vertex="1">
          <mxGeometry x="130" y="470" width="120" height="60" as="geometry" />
        </mxCell>
        <mxCell id="lziRZW3VLnHY5NK0qnCb-18" value="" style="edgeStyle=orthogonalEdgeStyle;rounded=0;orthogonalLoop=1;jettySize=auto;html=1;exitX=0.532;exitY=0.976;exitDx=0;exitDy=0;exitPerimeter=0;labelBorderColor=none;fontColor=default;" parent="1" source="lziRZW3VLnHY5NK0qnCb-13" target="lziRZW3VLnHY5NK0qnCb-17" edge="1">
          <mxGeometry relative="1" as="geometry" />
        </mxCell>
        <mxCell id="lziRZW3VLnHY5NK0qnCb-13" value="Resume data" style="shape=parallelogram;perimeter=parallelogramPerimeter;whiteSpace=wrap;html=1;fixedSize=1;labelBorderColor=none;fontColor=default;" parent="1" vertex="1">
          <mxGeometry x="100" y="780" width="170" height="50" as="geometry" />
        </mxCell>
        <mxCell id="lziRZW3VLnHY5NK0qnCb-14" value="Show percentage of each effectivity time each employee" style="shape=document;whiteSpace=wrap;html=1;boundedLbl=1;fillColor=#d5e8d4;strokeColor=#82b366;labelBorderColor=none;fontColor=default;" parent="1" vertex="1">
          <mxGeometry x="330" y="710" width="150" height="90" as="geometry" />
        </mxCell>
        <mxCell id="lziRZW3VLnHY5NK0qnCb-16" style="edgeStyle=orthogonalEdgeStyle;rounded=0;orthogonalLoop=1;jettySize=auto;html=1;entryX=-0.022;entryY=0.167;entryDx=0;entryDy=0;entryPerimeter=0;labelBorderColor=none;fontColor=default;" parent="1" source="lziRZW3VLnHY5NK0qnCb-13" target="lziRZW3VLnHY5NK0qnCb-14" edge="1">
          <mxGeometry relative="1" as="geometry" />
        </mxCell>
        <mxCell id="lziRZW3VLnHY5NK0qnCb-17" value="&lt;b&gt;End&lt;/b&gt;" style="ellipse;whiteSpace=wrap;html=1;labelBorderColor=none;fillColor=#f8cecc;strokeColor=#b85450;" parent="1" vertex="1">
          <mxGeometry x="145" y="860" width="90" height="60" as="geometry" />
        </mxCell>
        <mxCell id="lziRZW3VLnHY5NK0qnCb-23" style="edgeStyle=orthogonalEdgeStyle;rounded=0;orthogonalLoop=1;jettySize=auto;html=1;labelBorderColor=none;fontColor=default;" parent="1" source="lziRZW3VLnHY5NK0qnCb-19" edge="1">
          <mxGeometry relative="1" as="geometry">
            <mxPoint x="250" y="510" as="targetPoint" />
            <Array as="points">
              <mxPoint x="330" y="690" />
              <mxPoint x="330" y="510" />
              <mxPoint x="250" y="510" />
            </Array>
          </mxGeometry>
        </mxCell>
        <mxCell id="lziRZW3VLnHY5NK0qnCb-24" value="No" style="edgeLabel;html=1;align=center;verticalAlign=middle;resizable=0;points=[];labelBorderColor=none;fontColor=default;" parent="lziRZW3VLnHY5NK0qnCb-23" vertex="1" connectable="0">
          <mxGeometry x="-0.8646" y="-1" relative="1" as="geometry">
            <mxPoint as="offset" />
          </mxGeometry>
        </mxCell>
        <mxCell id="lziRZW3VLnHY5NK0qnCb-19" value="Is Video done?" style="rhombus;whiteSpace=wrap;html=1;labelBorderColor=none;fontColor=default;" parent="1" vertex="1">
          <mxGeometry x="130" y="640" width="120" height="100" as="geometry" />
        </mxCell>
        <mxCell id="lziRZW3VLnHY5NK0qnCb-22" style="edgeStyle=orthogonalEdgeStyle;rounded=0;orthogonalLoop=1;jettySize=auto;html=1;entryX=0.532;entryY=0.012;entryDx=0;entryDy=0;entryPerimeter=0;labelBorderColor=none;fontColor=default;" parent="1" source="lziRZW3VLnHY5NK0qnCb-19" target="lziRZW3VLnHY5NK0qnCb-13" edge="1">
          <mxGeometry relative="1" as="geometry" />
        </mxCell>
        <mxCell id="lziRZW3VLnHY5NK0qnCb-25" value="Yes" style="edgeLabel;html=1;align=center;verticalAlign=middle;resizable=0;points=[];labelBorderColor=none;fontColor=default;" parent="lziRZW3VLnHY5NK0qnCb-22" vertex="1" connectable="0">
          <mxGeometry x="0.0049" y="3" relative="1" as="geometry">
            <mxPoint y="-1" as="offset" />
          </mxGeometry>
        </mxCell>
        <mxCell id="lziRZW3VLnHY5NK0qnCb-29" value="" style="edgeStyle=orthogonalEdgeStyle;rounded=0;orthogonalLoop=1;jettySize=auto;html=1;" parent="1" source="lziRZW3VLnHY5NK0qnCb-26" target="lziRZW3VLnHY5NK0qnCb-19" edge="1">
          <mxGeometry relative="1" as="geometry" />
        </mxCell>
        <mxCell id="lziRZW3VLnHY5NK0qnCb-26" value="Realtime Data Sent&lt;div&gt;to mySQL Server&lt;/div&gt;" style="shape=dataStorage;whiteSpace=wrap;html=1;fixedSize=1;fillColor=#dae8fc;strokeColor=#6c8ebf;" parent="1" vertex="1">
          <mxGeometry x="115" y="560" width="150" height="60" as="geometry" />
        </mxCell>
        <mxCell id="lziRZW3VLnHY5NK0qnCb-30" value="Display Realtime Data" style="shape=display;whiteSpace=wrap;html=1;fillColor=#d5e8d4;strokeColor=#82b366;" parent="1" vertex="1">
          <mxGeometry x="330" y="430" width="150" height="60" as="geometry" />
        </mxCell>
        <mxCell id="4fWtG6Pbsw6B5I0u_5ej-32" style="edgeStyle=orthogonalEdgeStyle;rounded=0;orthogonalLoop=1;jettySize=auto;html=1;entryX=0.5;entryY=0;entryDx=0;entryDy=0;fontColor=default;labelBackgroundColor=none;" parent="1" source="4fWtG6Pbsw6B5I0u_5ej-1" target="4fWtG6Pbsw6B5I0u_5ej-9" edge="1">
          <mxGeometry relative="1" as="geometry">
            <Array as="points">
              <mxPoint x="936.5" y="328" />
              <mxPoint x="782.5" y="328" />
            </Array>
          </mxGeometry>
        </mxCell>
        <mxCell id="4fWtG6Pbsw6B5I0u_5ej-1" value="Start" style="ellipse;whiteSpace=wrap;html=1;fontStyle=1;labelBorderColor=none;fillColor=#f8cecc;strokeColor=#b85450;fontFamily=Dank Mono;fontColor=default;labelBackgroundColor=none;" parent="1" vertex="1">
          <mxGeometry x="891" y="249" width="90" height="60" as="geometry" />
        </mxCell>
        <mxCell id="4fWtG6Pbsw6B5I0u_5ej-2" value="&lt;b&gt;&lt;u&gt;Flowchart App/Web&lt;/u&gt;&lt;/b&gt;" style="text;html=1;align=center;verticalAlign=middle;whiteSpace=wrap;rounded=0;" parent="1" vertex="1">
          <mxGeometry x="115" y="130" width="150" height="30" as="geometry" />
        </mxCell>
        <mxCell id="4fWtG6Pbsw6B5I0u_5ej-3" value="&lt;b&gt;&lt;font face=&quot;Inconsolata&quot; style=&quot;font-size: 19px;&quot;&gt;Flowchart Python Script AI_CCTV BSML3&lt;/font&gt;&lt;/b&gt;" style="text;html=1;align=left;verticalAlign=middle;whiteSpace=wrap;rounded=0;fontColor=default;labelBackgroundColor=none;" parent="1" vertex="1">
          <mxGeometry x="718" y="200" width="236" height="30" as="geometry" />
        </mxCell>
        <mxCell id="4fWtG6Pbsw6B5I0u_5ej-33" value="" style="edgeStyle=orthogonalEdgeStyle;rounded=0;orthogonalLoop=1;jettySize=auto;html=1;fontColor=default;labelBackgroundColor=none;" parent="1" source="4fWtG6Pbsw6B5I0u_5ej-9" target="4fWtG6Pbsw6B5I0u_5ej-10" edge="1">
          <mxGeometry relative="1" as="geometry" />
        </mxCell>
        <mxCell id="4fWtG6Pbsw6B5I0u_5ej-9" value="Import Library" style="shape=process;whiteSpace=wrap;html=1;backgroundOutline=1;fontFamily=Dank Mono;fillColor=#66FFB3;strokeColor=#000000;fontColor=default;labelBackgroundColor=none;" parent="1" vertex="1">
          <mxGeometry x="722" y="357" width="120" height="60" as="geometry" />
        </mxCell>
        <mxCell id="4fWtG6Pbsw6B5I0u_5ej-36" style="edgeStyle=orthogonalEdgeStyle;rounded=0;orthogonalLoop=1;jettySize=auto;html=1;entryX=0;entryY=0.5;entryDx=0;entryDy=0;fontColor=default;labelBackgroundColor=none;" parent="1" source="4fWtG6Pbsw6B5I0u_5ej-10" target="4fWtG6Pbsw6B5I0u_5ej-11" edge="1">
          <mxGeometry relative="1" as="geometry" />
        </mxCell>
        <mxCell id="4fWtG6Pbsw6B5I0u_5ej-10" value="Initialize Video Capture" style="shape=process;whiteSpace=wrap;html=1;backgroundOutline=1;fontFamily=Dank Mono;fillColor=#66FFB3;strokeColor=#000000;fontColor=default;labelBackgroundColor=none;" parent="1" vertex="1">
          <mxGeometry x="875" y="357" width="122" height="61" as="geometry" />
        </mxCell>
        <mxCell id="4fWtG6Pbsw6B5I0u_5ej-37" value="" style="edgeStyle=orthogonalEdgeStyle;rounded=0;orthogonalLoop=1;jettySize=auto;html=1;fontColor=default;labelBackgroundColor=none;" parent="1" source="4fWtG6Pbsw6B5I0u_5ej-11" target="4fWtG6Pbsw6B5I0u_5ej-12" edge="1">
          <mxGeometry relative="1" as="geometry" />
        </mxCell>
        <mxCell id="4fWtG6Pbsw6B5I0u_5ej-11" value="Process Detection" style="shape=process;whiteSpace=wrap;html=1;backgroundOutline=1;fontFamily=Dank Mono;fillColor=#66FFB3;strokeColor=#000000;fontColor=default;labelBackgroundColor=none;" parent="1" vertex="1">
          <mxGeometry x="1029" y="358" width="120" height="60" as="geometry" />
        </mxCell>
        <mxCell id="4fWtG6Pbsw6B5I0u_5ej-39" value="" style="edgeStyle=orthogonalEdgeStyle;rounded=0;orthogonalLoop=1;jettySize=auto;html=1;fontColor=default;labelBackgroundColor=none;" parent="1" source="4fWtG6Pbsw6B5I0u_5ej-12" target="4fWtG6Pbsw6B5I0u_5ej-13" edge="1">
          <mxGeometry relative="1" as="geometry" />
        </mxCell>
        <mxCell id="4fWtG6Pbsw6B5I0u_5ej-12" value="Update Data Table" style="shape=process;whiteSpace=wrap;html=1;backgroundOutline=1;fontFamily=Dank Mono;fillColor=#66FFB3;strokeColor=#000000;fontColor=default;labelBackgroundColor=none;" parent="1" vertex="1">
          <mxGeometry x="1029.5" y="445" width="120" height="60" as="geometry" />
        </mxCell>
        <mxCell id="4fWtG6Pbsw6B5I0u_5ej-40" value="" style="edgeStyle=orthogonalEdgeStyle;rounded=0;orthogonalLoop=1;jettySize=auto;html=1;fontColor=default;labelBackgroundColor=none;" parent="1" source="4fWtG6Pbsw6B5I0u_5ej-13" target="4fWtG6Pbsw6B5I0u_5ej-14" edge="1">
          <mxGeometry relative="1" as="geometry" />
        </mxCell>
        <mxCell id="4fWtG6Pbsw6B5I0u_5ej-13" value="Calculate Percentages" style="shape=process;whiteSpace=wrap;html=1;backgroundOutline=1;fontFamily=Dank Mono;fillColor=#66FFB3;strokeColor=#000000;fontColor=default;labelBackgroundColor=none;" parent="1" vertex="1">
          <mxGeometry x="876" y="445" width="120" height="60" as="geometry" />
        </mxCell>
        <mxCell id="4fWtG6Pbsw6B5I0u_5ej-43" value="" style="edgeStyle=orthogonalEdgeStyle;rounded=0;orthogonalLoop=1;jettySize=auto;html=1;fontColor=default;labelBackgroundColor=none;" parent="1" source="4fWtG6Pbsw6B5I0u_5ej-14" target="4fWtG6Pbsw6B5I0u_5ej-15" edge="1">
          <mxGeometry relative="1" as="geometry" />
        </mxCell>
        <mxCell id="4fWtG6Pbsw6B5I0u_5ej-14" value="Draw Table" style="shape=process;whiteSpace=wrap;html=1;backgroundOutline=1;fontFamily=Dank Mono;fillColor=#66FFB3;strokeColor=#000000;fontColor=default;labelBackgroundColor=none;" parent="1" vertex="1">
          <mxGeometry x="722" y="445" width="120" height="60" as="geometry" />
        </mxCell>
        <mxCell id="4fWtG6Pbsw6B5I0u_5ej-44" style="edgeStyle=orthogonalEdgeStyle;rounded=0;orthogonalLoop=1;jettySize=auto;html=1;entryX=0;entryY=0.5;entryDx=0;entryDy=0;fontColor=default;labelBackgroundColor=none;" parent="1" source="4fWtG6Pbsw6B5I0u_5ej-15" target="4fWtG6Pbsw6B5I0u_5ej-16" edge="1">
          <mxGeometry relative="1" as="geometry" />
        </mxCell>
        <mxCell id="4fWtG6Pbsw6B5I0u_5ej-15" value="Main" style="shape=process;whiteSpace=wrap;html=1;backgroundOutline=1;fontFamily=Dank Mono;fillColor=#66FFB3;strokeColor=#000000;fontColor=default;labelBackgroundColor=none;" parent="1" vertex="1">
          <mxGeometry x="722" y="558.5" width="120" height="60" as="geometry" />
        </mxCell>
        <mxCell id="4fWtG6Pbsw6B5I0u_5ej-23" value="" style="edgeStyle=orthogonalEdgeStyle;rounded=0;orthogonalLoop=1;jettySize=auto;html=1;fontColor=default;labelBackgroundColor=none;" parent="1" source="4fWtG6Pbsw6B5I0u_5ej-16" target="4fWtG6Pbsw6B5I0u_5ej-22" edge="1">
          <mxGeometry relative="1" as="geometry" />
        </mxCell>
        <mxCell id="4fWtG6Pbsw6B5I0u_5ej-24" value="Yes" style="edgeLabel;html=1;align=center;verticalAlign=middle;resizable=0;points=[];fontFamily=Dank Mono;fontColor=default;labelBackgroundColor=none;" parent="4fWtG6Pbsw6B5I0u_5ej-23" vertex="1" connectable="0">
          <mxGeometry x="-0.3" y="3" relative="1" as="geometry">
            <mxPoint x="-3" y="-4" as="offset" />
          </mxGeometry>
        </mxCell>
        <mxCell id="4fWtG6Pbsw6B5I0u_5ej-47" value="" style="edgeStyle=orthogonalEdgeStyle;rounded=0;orthogonalLoop=1;jettySize=auto;html=1;fontColor=default;labelBackgroundColor=none;" parent="1" source="4fWtG6Pbsw6B5I0u_5ej-16" target="4fWtG6Pbsw6B5I0u_5ej-27" edge="1">
          <mxGeometry relative="1" as="geometry" />
        </mxCell>
        <mxCell id="4fWtG6Pbsw6B5I0u_5ej-49" value="No" style="edgeLabel;html=1;align=center;verticalAlign=middle;resizable=0;points=[];fontColor=default;labelBackgroundColor=none;" parent="4fWtG6Pbsw6B5I0u_5ej-47" vertex="1" connectable="0">
          <mxGeometry x="-0.6073" y="-2" relative="1" as="geometry">
            <mxPoint x="10" as="offset" />
          </mxGeometry>
        </mxCell>
        <mxCell id="4fWtG6Pbsw6B5I0u_5ej-16" value="Is __name__&lt;div&gt;== &quot;__main__&quot;&lt;/div&gt;" style="rhombus;whiteSpace=wrap;html=1;fontFamily=Dank Mono;fillColor=#dae8fc;strokeColor=#000000;fontColor=default;labelBackgroundColor=none;" parent="1" vertex="1">
          <mxGeometry x="876" y="523.5" width="119" height="130" as="geometry" />
        </mxCell>
        <mxCell id="4fWtG6Pbsw6B5I0u_5ej-46" value="" style="edgeStyle=orthogonalEdgeStyle;rounded=0;orthogonalLoop=1;jettySize=auto;html=1;fontColor=default;labelBackgroundColor=none;" parent="1" source="4fWtG6Pbsw6B5I0u_5ej-22" target="4fWtG6Pbsw6B5I0u_5ej-25" edge="1">
          <mxGeometry relative="1" as="geometry" />
        </mxCell>
        <mxCell id="4fWtG6Pbsw6B5I0u_5ej-22" value="&lt;ul style=&quot;padding-left: 18px; margin-right: 2px; margin-top: 12px; font-size: 12px;&quot;&gt;&lt;li style=&quot;font-size: 12px;&quot;&gt;Video Path&lt;/li&gt;&lt;li style=&quot;font-size: 12px;&quot;&gt;Model&lt;/li&gt;&lt;li style=&quot;font-size: 12px;&quot;&gt;Confidence Threshold&lt;/li&gt;&lt;li style=&quot;font-size: 12px;&quot;&gt;Video Scale&lt;/li&gt;&lt;/ul&gt;" style="shape=rectangle;whiteSpace=wrap;html=1;backgroundOutline=1;align=left;spacing=2;fontFamily=Dank Mono;fontSize=12;fontColor=default;labelBackgroundColor=none;" parent="1" vertex="1">
          <mxGeometry x="1034" y="547" width="111" height="83" as="geometry" />
        </mxCell>
        <mxCell id="4fWtG6Pbsw6B5I0u_5ej-48" style="edgeStyle=orthogonalEdgeStyle;rounded=0;orthogonalLoop=1;jettySize=auto;html=1;entryX=0.5;entryY=0;entryDx=0;entryDy=0;fontColor=default;labelBackgroundColor=none;" parent="1" source="4fWtG6Pbsw6B5I0u_5ej-25" target="4fWtG6Pbsw6B5I0u_5ej-27" edge="1">
          <mxGeometry relative="1" as="geometry" />
        </mxCell>
        <mxCell id="4fWtG6Pbsw6B5I0u_5ej-25" value="Main" style="shape=rectangle;whiteSpace=wrap;html=1;backgroundOutline=1;fontFamily=Dank Mono;fontColor=default;labelBackgroundColor=none;" parent="1" vertex="1">
          <mxGeometry x="1045.75" y="672" width="87.5" height="33" as="geometry" />
        </mxCell>
        <mxCell id="4fWtG6Pbsw6B5I0u_5ej-27" value="&lt;b&gt;End&lt;/b&gt;" style="ellipse;whiteSpace=wrap;html=1;labelBorderColor=none;fillColor=#f8cecc;strokeColor=#b85450;fontColor=default;labelBackgroundColor=none;" parent="1" vertex="1">
          <mxGeometry x="891" y="728" width="90" height="60" as="geometry" />
        </mxCell>
        <mxCell id="4fWtG6Pbsw6B5I0u_5ej-55" value="" style="edgeStyle=orthogonalEdgeStyle;rounded=0;orthogonalLoop=1;jettySize=auto;html=1;" parent="1" source="4fWtG6Pbsw6B5I0u_5ej-53" target="4fWtG6Pbsw6B5I0u_5ej-54" edge="1">
          <mxGeometry relative="1" as="geometry" />
        </mxCell>
        <mxCell id="4fWtG6Pbsw6B5I0u_5ej-53" value="Main_Start" style="ellipse;whiteSpace=wrap;html=1;fontStyle=1;labelBorderColor=none;fillColor=#66FFB3;strokeColor=#000000;fontFamily=Dank Mono;fontColor=default;labelBackgroundColor=none;" parent="1" vertex="1">
          <mxGeometry x="1241" y="249" width="90" height="60" as="geometry" />
        </mxCell>
        <mxCell id="4fWtG6Pbsw6B5I0u_5ej-60" style="edgeStyle=orthogonalEdgeStyle;rounded=0;orthogonalLoop=1;jettySize=auto;html=1;entryX=0.5;entryY=0;entryDx=0;entryDy=0;" parent="1" source="4fWtG6Pbsw6B5I0u_5ej-54" target="4fWtG6Pbsw6B5I0u_5ej-56" edge="1">
          <mxGeometry relative="1" as="geometry" />
        </mxCell>
        <mxCell id="4fWtG6Pbsw6B5I0u_5ej-54" value="Initialize Video Capture" style="shape=rectangle;whiteSpace=wrap;html=1;backgroundOutline=1;fontFamily=Dank Mono;fontColor=default;labelBackgroundColor=none;" parent="1" vertex="1">
          <mxGeometry x="1201" y="347" width="170" height="33" as="geometry" />
        </mxCell>
        <mxCell id="4fWtG6Pbsw6B5I0u_5ej-61" value="" style="edgeStyle=orthogonalEdgeStyle;rounded=0;orthogonalLoop=1;jettySize=auto;html=1;" parent="1" source="4fWtG6Pbsw6B5I0u_5ej-56" target="4fWtG6Pbsw6B5I0u_5ej-57" edge="1">
          <mxGeometry relative="1" as="geometry" />
        </mxCell>
        <mxCell id="4fWtG6Pbsw6B5I0u_5ej-56" value="Initialize Models" style="shape=rectangle;whiteSpace=wrap;html=1;backgroundOutline=1;fontFamily=Dank Mono;fontColor=default;labelBackgroundColor=none;" parent="1" vertex="1">
          <mxGeometry x="1201" y="403" width="170" height="33" as="geometry" />
        </mxCell>
        <mxCell id="4fWtG6Pbsw6B5I0u_5ej-65" style="edgeStyle=orthogonalEdgeStyle;rounded=0;orthogonalLoop=1;jettySize=auto;html=1;" parent="1" source="4fWtG6Pbsw6B5I0u_5ej-57" target="4fWtG6Pbsw6B5I0u_5ej-62" edge="1">
          <mxGeometry relative="1" as="geometry" />
        </mxCell>
        <mxCell id="4fWtG6Pbsw6B5I0u_5ej-66" value="&lt;font face=&quot;Fira Code&quot;&gt;Entering while loop&lt;/font&gt;" style="edgeLabel;html=1;align=center;verticalAlign=middle;resizable=0;points=[];fontStyle=1;fontColor=#006666;" parent="4fWtG6Pbsw6B5I0u_5ej-65" vertex="1" connectable="0">
          <mxGeometry x="-0.0567" y="-3" relative="1" as="geometry">
            <mxPoint as="offset" />
          </mxGeometry>
        </mxCell>
        <mxCell id="4fWtG6Pbsw6B5I0u_5ej-57" value="Initialize Model Object Classes" style="shape=rectangle;whiteSpace=wrap;html=1;backgroundOutline=1;fontFamily=Dank Mono;fontColor=default;labelBackgroundColor=none;" parent="1" vertex="1">
          <mxGeometry x="1201" y="459" width="170" height="33" as="geometry" />
        </mxCell>
        <mxCell id="4fWtG6Pbsw6B5I0u_5ej-67" style="edgeStyle=orthogonalEdgeStyle;rounded=0;orthogonalLoop=1;jettySize=auto;html=1;entryX=0.5;entryY=0;entryDx=0;entryDy=0;" parent="1" source="4fWtG6Pbsw6B5I0u_5ej-62" target="4fWtG6Pbsw6B5I0u_5ej-63" edge="1">
          <mxGeometry relative="1" as="geometry" />
        </mxCell>
        <mxCell id="4fWtG6Pbsw6B5I0u_5ej-62" value="Object Predictions" style="shape=rectangle;whiteSpace=wrap;html=1;backgroundOutline=1;fontFamily=Dank Mono;labelBackgroundColor=none;fillColor=#dae8fc;strokeColor=#6c8ebf;" parent="1" vertex="1">
          <mxGeometry x="1201" y="535" width="170" height="33" as="geometry" />
        </mxCell>
        <mxCell id="4fWtG6Pbsw6B5I0u_5ej-73" value="" style="edgeStyle=orthogonalEdgeStyle;rounded=0;orthogonalLoop=1;jettySize=auto;html=1;" parent="1" source="4fWtG6Pbsw6B5I0u_5ej-63" target="4fWtG6Pbsw6B5I0u_5ej-68" edge="1">
          <mxGeometry relative="1" as="geometry" />
        </mxCell>
        <mxCell id="4fWtG6Pbsw6B5I0u_5ej-63" value="Detections" style="shape=rectangle;whiteSpace=wrap;html=1;backgroundOutline=1;fontFamily=Dank Mono;labelBackgroundColor=none;fillColor=#dae8fc;strokeColor=#6c8ebf;" parent="1" vertex="1">
          <mxGeometry x="1201" y="590.5" width="170" height="33" as="geometry" />
        </mxCell>
        <mxCell id="4fWtG6Pbsw6B5I0u_5ej-74" value="" style="edgeStyle=orthogonalEdgeStyle;rounded=0;orthogonalLoop=1;jettySize=auto;html=1;" parent="1" source="4fWtG6Pbsw6B5I0u_5ej-68" target="4fWtG6Pbsw6B5I0u_5ej-72" edge="1">
          <mxGeometry relative="1" as="geometry" />
        </mxCell>
        <mxCell id="4fWtG6Pbsw6B5I0u_5ej-68" value="&lt;ul style=&quot;padding-left: 18px; margin-left: 0px;&quot;&gt;&lt;li style=&quot;&quot;&gt;Time Dictionary &amp;amp; BBox Classes That Detected&lt;/li&gt;&lt;li style=&quot;&quot;&gt;Time Dictionary Classes That Undetected&lt;/li&gt;&lt;/ul&gt;" style="shape=rectangle;whiteSpace=wrap;html=1;backgroundOutline=1;fontFamily=Dank Mono;labelBackgroundColor=none;align=left;fillColor=#dae8fc;strokeColor=#6c8ebf;" parent="1" vertex="1">
          <mxGeometry x="1201" y="645" width="170" height="80" as="geometry" />
        </mxCell>
        <mxCell id="4fWtG6Pbsw6B5I0u_5ej-72" value="Main_End" style="ellipse;whiteSpace=wrap;html=1;fontStyle=1;labelBorderColor=none;fillColor=#66FFB3;strokeColor=#000000;fontFamily=Dank Mono;fontColor=default;labelBackgroundColor=none;" parent="1" vertex="1">
          <mxGeometry x="1241" y="746" width="90" height="60" as="geometry" />
        </mxCell>
        <mxCell id="zRZZYNPsBlZk8i2Yu4kW-1" value="&lt;b&gt;&lt;font face=&quot;Inconsolata&quot; style=&quot;font-size: 19px;&quot;&gt;Flowchart Python Script AI_CCTV BSML3&lt;/font&gt;&lt;/b&gt;" style="text;html=1;align=left;verticalAlign=middle;whiteSpace=wrap;rounded=0;fontColor=default;labelBackgroundColor=none;" parent="1" vertex="1">
          <mxGeometry x="1598" y="200" width="236" height="30" as="geometry" />
        </mxCell>
        <mxCell id="PF1a-tq5lz1KESmNchG3-1" style="edgeStyle=orthogonalEdgeStyle;rounded=0;orthogonalLoop=1;jettySize=auto;html=1;entryX=0.5;entryY=0;entryDx=0;entryDy=0;fontColor=default;labelBackgroundColor=none;" parent="1" source="PF1a-tq5lz1KESmNchG3-2" target="PF1a-tq5lz1KESmNchG3-4" edge="1">
          <mxGeometry relative="1" as="geometry">
            <Array as="points">
              <mxPoint x="1814.5" y="333" />
              <mxPoint x="1660.5" y="333" />
            </Array>
          </mxGeometry>
        </mxCell>
        <mxCell id="PF1a-tq5lz1KESmNchG3-2" value="Start" style="ellipse;whiteSpace=wrap;html=1;fontStyle=1;labelBorderColor=none;fillColor=#f8cecc;strokeColor=#b85450;fontFamily=Dank Mono;fontColor=default;labelBackgroundColor=none;" parent="1" vertex="1">
          <mxGeometry x="1769" y="254" width="90" height="60" as="geometry" />
        </mxCell>
        <mxCell id="PF1a-tq5lz1KESmNchG3-3" value="" style="edgeStyle=orthogonalEdgeStyle;rounded=0;orthogonalLoop=1;jettySize=auto;html=1;fontColor=default;labelBackgroundColor=none;" parent="1" source="PF1a-tq5lz1KESmNchG3-4" target="PF1a-tq5lz1KESmNchG3-6" edge="1">
          <mxGeometry relative="1" as="geometry" />
        </mxCell>
        <mxCell id="PF1a-tq5lz1KESmNchG3-4" value="Import Library" style="shape=process;whiteSpace=wrap;html=1;backgroundOutline=1;fontFamily=Dank Mono;fillColor=#66FFB3;strokeColor=#000000;fontColor=default;labelBackgroundColor=none;" parent="1" vertex="1">
          <mxGeometry x="1600" y="362" width="120" height="60" as="geometry" />
        </mxCell>
        <mxCell id="PF1a-tq5lz1KESmNchG3-5" style="edgeStyle=orthogonalEdgeStyle;rounded=0;orthogonalLoop=1;jettySize=auto;html=1;entryX=0;entryY=0.5;entryDx=0;entryDy=0;fontColor=default;labelBackgroundColor=none;" parent="1" source="PF1a-tq5lz1KESmNchG3-6" target="PF1a-tq5lz1KESmNchG3-8" edge="1">
          <mxGeometry relative="1" as="geometry" />
        </mxCell>
        <mxCell id="PF1a-tq5lz1KESmNchG3-6" value="Initialize Video Capture" style="shape=process;whiteSpace=wrap;html=1;backgroundOutline=1;fontFamily=Dank Mono;fillColor=#66FFB3;strokeColor=#000000;fontColor=default;labelBackgroundColor=none;" parent="1" vertex="1">
          <mxGeometry x="1753" y="362" width="122" height="61" as="geometry" />
        </mxCell>
        <mxCell id="PF1a-tq5lz1KESmNchG3-7" value="" style="edgeStyle=orthogonalEdgeStyle;rounded=0;orthogonalLoop=1;jettySize=auto;html=1;fontColor=default;labelBackgroundColor=none;" parent="1" source="PF1a-tq5lz1KESmNchG3-8" target="PF1a-tq5lz1KESmNchG3-10" edge="1">
          <mxGeometry relative="1" as="geometry" />
        </mxCell>
        <mxCell id="PF1a-tq5lz1KESmNchG3-8" value="Process Detection" style="shape=process;whiteSpace=wrap;html=1;backgroundOutline=1;fontFamily=Dank Mono;fillColor=#66FFB3;strokeColor=#000000;fontColor=default;labelBackgroundColor=none;" parent="1" vertex="1">
          <mxGeometry x="1907" y="363" width="120" height="60" as="geometry" />
        </mxCell>
        <mxCell id="PF1a-tq5lz1KESmNchG3-9" value="" style="edgeStyle=orthogonalEdgeStyle;rounded=0;orthogonalLoop=1;jettySize=auto;html=1;fontColor=default;labelBackgroundColor=none;" parent="1" source="PF1a-tq5lz1KESmNchG3-10" target="PF1a-tq5lz1KESmNchG3-12" edge="1">
          <mxGeometry relative="1" as="geometry" />
        </mxCell>
        <mxCell id="PF1a-tq5lz1KESmNchG3-10" value="Update Data Table" style="shape=process;whiteSpace=wrap;html=1;backgroundOutline=1;fontFamily=Dank Mono;fillColor=#66FFB3;strokeColor=#000000;fontColor=default;labelBackgroundColor=none;" parent="1" vertex="1">
          <mxGeometry x="1907.5" y="450" width="120" height="60" as="geometry" />
        </mxCell>
        <mxCell id="PF1a-tq5lz1KESmNchG3-11" value="" style="edgeStyle=orthogonalEdgeStyle;rounded=0;orthogonalLoop=1;jettySize=auto;html=1;fontColor=default;labelBackgroundColor=none;" parent="1" source="PF1a-tq5lz1KESmNchG3-12" target="PF1a-tq5lz1KESmNchG3-14" edge="1">
          <mxGeometry relative="1" as="geometry" />
        </mxCell>
        <mxCell id="PF1a-tq5lz1KESmNchG3-12" value="Calculate Percentages" style="shape=process;whiteSpace=wrap;html=1;backgroundOutline=1;fontFamily=Dank Mono;fillColor=#66FFB3;strokeColor=#000000;fontColor=default;labelBackgroundColor=none;" parent="1" vertex="1">
          <mxGeometry x="1754" y="450" width="120" height="60" as="geometry" />
        </mxCell>
        <mxCell id="PF1a-tq5lz1KESmNchG3-47" value="" style="edgeStyle=orthogonalEdgeStyle;rounded=0;orthogonalLoop=1;jettySize=auto;html=1;" parent="1" source="PF1a-tq5lz1KESmNchG3-14" target="PF1a-tq5lz1KESmNchG3-45" edge="1">
          <mxGeometry relative="1" as="geometry" />
        </mxCell>
        <mxCell id="PF1a-tq5lz1KESmNchG3-14" value="Draw Table" style="shape=process;whiteSpace=wrap;html=1;backgroundOutline=1;fontFamily=Dank Mono;fillColor=#66FFB3;strokeColor=#000000;fontColor=default;labelBackgroundColor=none;" parent="1" vertex="1">
          <mxGeometry x="1600" y="450" width="120" height="60" as="geometry" />
        </mxCell>
        <mxCell id="PF1a-tq5lz1KESmNchG3-65" style="edgeStyle=orthogonalEdgeStyle;rounded=0;orthogonalLoop=1;jettySize=auto;html=1;entryX=0.5;entryY=0;entryDx=0;entryDy=0;" parent="1" source="PF1a-tq5lz1KESmNchG3-16" target="PF1a-tq5lz1KESmNchG3-21" edge="1">
          <mxGeometry relative="1" as="geometry" />
        </mxCell>
        <mxCell id="PF1a-tq5lz1KESmNchG3-16" value="Main" style="shape=process;whiteSpace=wrap;html=1;backgroundOutline=1;fontFamily=Dank Mono;fillColor=#66FFB3;strokeColor=#000000;fontColor=default;labelBackgroundColor=none;" parent="1" vertex="1">
          <mxGeometry x="1753.5" y="538" width="120" height="60" as="geometry" />
        </mxCell>
        <mxCell id="PF1a-tq5lz1KESmNchG3-17" value="" style="edgeStyle=orthogonalEdgeStyle;rounded=0;orthogonalLoop=1;jettySize=auto;html=1;fontColor=default;labelBackgroundColor=none;" parent="1" source="PF1a-tq5lz1KESmNchG3-21" target="PF1a-tq5lz1KESmNchG3-23" edge="1">
          <mxGeometry relative="1" as="geometry">
            <Array as="points">
              <mxPoint x="1937" y="695" />
            </Array>
          </mxGeometry>
        </mxCell>
        <mxCell id="PF1a-tq5lz1KESmNchG3-18" value="Yes" style="edgeLabel;html=1;align=center;verticalAlign=middle;resizable=0;points=[];fontFamily=Dank Mono;fontColor=default;labelBackgroundColor=none;" parent="PF1a-tq5lz1KESmNchG3-17" vertex="1" connectable="0">
          <mxGeometry x="-0.3" y="3" relative="1" as="geometry">
            <mxPoint x="-29" y="-6" as="offset" />
          </mxGeometry>
        </mxCell>
        <mxCell id="PF1a-tq5lz1KESmNchG3-19" value="" style="edgeStyle=orthogonalEdgeStyle;rounded=0;orthogonalLoop=1;jettySize=auto;html=1;fontColor=default;labelBackgroundColor=none;" parent="1" source="PF1a-tq5lz1KESmNchG3-21" target="PF1a-tq5lz1KESmNchG3-26" edge="1">
          <mxGeometry relative="1" as="geometry" />
        </mxCell>
        <mxCell id="PF1a-tq5lz1KESmNchG3-20" value="No" style="edgeLabel;html=1;align=center;verticalAlign=middle;resizable=0;points=[];fontColor=default;labelBackgroundColor=none;fontFamily=Dank Mono;fontSource=https%3A%2F%2Ffonts.googleapis.com%2Fcss%3Ffamily%3DDank%2BMono;" parent="PF1a-tq5lz1KESmNchG3-19" vertex="1" connectable="0">
          <mxGeometry x="-0.6073" y="-2" relative="1" as="geometry">
            <mxPoint x="15" y="-2" as="offset" />
          </mxGeometry>
        </mxCell>
        <mxCell id="PF1a-tq5lz1KESmNchG3-21" value="Is __name__&lt;div&gt;== &quot;__main__&quot;&lt;/div&gt;" style="rhombus;whiteSpace=wrap;html=1;fontFamily=Dank Mono;fillColor=#dae8fc;strokeColor=#000000;fontColor=default;labelBackgroundColor=none;" parent="1" vertex="1">
          <mxGeometry x="1754" y="630" width="119" height="130" as="geometry" />
        </mxCell>
        <mxCell id="PF1a-tq5lz1KESmNchG3-22" value="" style="edgeStyle=orthogonalEdgeStyle;rounded=0;orthogonalLoop=1;jettySize=auto;html=1;fontColor=default;labelBackgroundColor=none;" parent="1" source="PF1a-tq5lz1KESmNchG3-23" target="PF1a-tq5lz1KESmNchG3-25" edge="1">
          <mxGeometry relative="1" as="geometry" />
        </mxCell>
        <mxCell id="PF1a-tq5lz1KESmNchG3-23" value="&lt;ul style=&quot;padding-left: 18px; margin-right: 2px; margin-top: 12px; font-size: 12px;&quot;&gt;&lt;li style=&quot;font-size: 12px;&quot;&gt;Video Path&lt;/li&gt;&lt;li style=&quot;font-size: 12px;&quot;&gt;Models Path&lt;/li&gt;&lt;li style=&quot;font-size: 12px;&quot;&gt;Confidences Threshold&lt;/li&gt;&lt;li style=&quot;font-size: 12px;&quot;&gt;Video Scale&lt;/li&gt;&lt;/ul&gt;" style="shape=rectangle;whiteSpace=wrap;html=1;backgroundOutline=1;align=left;spacing=2;fontFamily=Dank Mono;fontSize=12;fontColor=default;labelBackgroundColor=none;" parent="1" vertex="1">
          <mxGeometry x="1912" y="537" width="111" height="83" as="geometry" />
        </mxCell>
        <mxCell id="PF1a-tq5lz1KESmNchG3-66" style="edgeStyle=orthogonalEdgeStyle;rounded=0;orthogonalLoop=1;jettySize=auto;html=1;entryX=0.5;entryY=0;entryDx=0;entryDy=0;" parent="1" source="PF1a-tq5lz1KESmNchG3-25" target="PF1a-tq5lz1KESmNchG3-26" edge="1">
          <mxGeometry relative="1" as="geometry">
            <Array as="points">
              <mxPoint x="1967" y="795" />
              <mxPoint x="1814" y="795" />
            </Array>
          </mxGeometry>
        </mxCell>
        <mxCell id="PF1a-tq5lz1KESmNchG3-25" value="Main()" style="shape=rectangle;whiteSpace=wrap;html=1;backgroundOutline=1;fontFamily=Dank Mono;fontColor=default;labelBackgroundColor=none;" parent="1" vertex="1">
          <mxGeometry x="1923.25" y="727" width="87.5" height="33" as="geometry" />
        </mxCell>
        <mxCell id="PF1a-tq5lz1KESmNchG3-26" value="&lt;b&gt;End&lt;/b&gt;" style="ellipse;whiteSpace=wrap;html=1;labelBorderColor=none;fillColor=#f8cecc;strokeColor=#b85450;fontColor=default;labelBackgroundColor=none;" parent="1" vertex="1">
          <mxGeometry x="1769" y="821" width="90" height="60" as="geometry" />
        </mxCell>
        <mxCell id="PF1a-tq5lz1KESmNchG3-52" value="" style="edgeStyle=orthogonalEdgeStyle;rounded=0;orthogonalLoop=1;jettySize=auto;html=1;" parent="1" source="PF1a-tq5lz1KESmNchG3-28" target="PF1a-tq5lz1KESmNchG3-49" edge="1">
          <mxGeometry relative="1" as="geometry" />
        </mxCell>
        <mxCell id="PF1a-tq5lz1KESmNchG3-28" value="Main_Start" style="ellipse;whiteSpace=wrap;html=1;fontStyle=1;labelBorderColor=none;fillColor=#66FFB3;strokeColor=#000000;fontFamily=Dank Mono;fontColor=default;labelBackgroundColor=none;" parent="1" vertex="1">
          <mxGeometry x="2296" y="318" width="90" height="60" as="geometry" />
        </mxCell>
        <mxCell id="PF1a-tq5lz1KESmNchG3-57" style="edgeStyle=orthogonalEdgeStyle;rounded=0;orthogonalLoop=1;jettySize=auto;html=1;" parent="1" source="PF1a-tq5lz1KESmNchG3-30" target="PF1a-tq5lz1KESmNchG3-32" edge="1">
          <mxGeometry relative="1" as="geometry" />
        </mxCell>
        <mxCell id="PF1a-tq5lz1KESmNchG3-30" value="Initialize Video Capture" style="shape=rectangle;whiteSpace=wrap;html=1;backgroundOutline=1;fontFamily=Dank Mono;fontColor=default;labelBackgroundColor=none;" parent="1" vertex="1">
          <mxGeometry x="2355" y="422" width="138" height="33" as="geometry" />
        </mxCell>
        <mxCell id="PF1a-tq5lz1KESmNchG3-58" value="" style="edgeStyle=orthogonalEdgeStyle;rounded=0;orthogonalLoop=1;jettySize=auto;html=1;" parent="1" source="PF1a-tq5lz1KESmNchG3-32" target="PF1a-tq5lz1KESmNchG3-35" edge="1">
          <mxGeometry relative="1" as="geometry" />
        </mxCell>
        <mxCell id="PF1a-tq5lz1KESmNchG3-32" value="Initialize Models" style="shape=rectangle;whiteSpace=wrap;html=1;backgroundOutline=1;fontFamily=Dank Mono;fontColor=default;labelBackgroundColor=none;" parent="1" vertex="1">
          <mxGeometry x="2355" y="483.5" width="139" height="33" as="geometry" />
        </mxCell>
        <mxCell id="PF1a-tq5lz1KESmNchG3-33" style="edgeStyle=orthogonalEdgeStyle;rounded=0;orthogonalLoop=1;jettySize=auto;html=1;entryX=0.5;entryY=0;entryDx=0;entryDy=0;" parent="1" source="PF1a-tq5lz1KESmNchG3-35" target="0K6v0SR-kfQ_nzcjlXtt-1" edge="1">
          <mxGeometry relative="1" as="geometry">
            <mxPoint x="2172" y="564" as="targetPoint" />
            <Array as="points">
              <mxPoint x="2164" y="500" />
            </Array>
          </mxGeometry>
        </mxCell>
        <mxCell id="PF1a-tq5lz1KESmNchG3-34" value="&lt;font face=&quot;Fira Code&quot;&gt;Entering while loop&lt;/font&gt;" style="edgeLabel;html=1;align=center;verticalAlign=middle;resizable=0;points=[];fontStyle=1;fontColor=#006666;" parent="PF1a-tq5lz1KESmNchG3-33" vertex="1" connectable="0">
          <mxGeometry x="-0.0567" y="-3" relative="1" as="geometry">
            <mxPoint x="1" y="14" as="offset" />
          </mxGeometry>
        </mxCell>
        <mxCell id="PF1a-tq5lz1KESmNchG3-35" value="Initialize Model Object Classes" style="shape=rectangle;whiteSpace=wrap;html=1;backgroundOutline=1;fontFamily=Dank Mono;fontColor=default;labelBackgroundColor=none;" parent="1" vertex="1">
          <mxGeometry x="2188" y="483.5" width="137" height="33" as="geometry" />
        </mxCell>
        <mxCell id="PF1a-tq5lz1KESmNchG3-59" value="" style="edgeStyle=orthogonalEdgeStyle;rounded=0;orthogonalLoop=1;jettySize=auto;html=1;" parent="1" source="PF1a-tq5lz1KESmNchG3-37" target="PF1a-tq5lz1KESmNchG3-39" edge="1">
          <mxGeometry relative="1" as="geometry" />
        </mxCell>
        <mxCell id="PF1a-tq5lz1KESmNchG3-37" value="Object Predictions" style="shape=rectangle;whiteSpace=wrap;html=1;backgroundOutline=1;fontFamily=Dank Mono;labelBackgroundColor=none;fillColor=#dae8fc;strokeColor=#6c8ebf;" parent="1" vertex="1">
          <mxGeometry x="2279" y="554.5" width="102" height="33" as="geometry" />
        </mxCell>
        <mxCell id="PF1a-tq5lz1KESmNchG3-60" value="" style="edgeStyle=orthogonalEdgeStyle;rounded=0;orthogonalLoop=1;jettySize=auto;html=1;" parent="1" source="PF1a-tq5lz1KESmNchG3-39" target="PF1a-tq5lz1KESmNchG3-41" edge="1">
          <mxGeometry relative="1" as="geometry" />
        </mxCell>
        <mxCell id="PF1a-tq5lz1KESmNchG3-39" value="Detections" style="shape=rectangle;whiteSpace=wrap;html=1;backgroundOutline=1;fontFamily=Dank Mono;labelBackgroundColor=none;fillColor=#dae8fc;strokeColor=#6c8ebf;" parent="1" vertex="1">
          <mxGeometry x="2433" y="554.5" width="98" height="33" as="geometry" />
        </mxCell>
        <mxCell id="PF1a-tq5lz1KESmNchG3-63" value="" style="edgeStyle=orthogonalEdgeStyle;rounded=0;orthogonalLoop=1;jettySize=auto;html=1;" parent="1" source="PF1a-tq5lz1KESmNchG3-41" target="PF1a-tq5lz1KESmNchG3-61" edge="1">
          <mxGeometry relative="1" as="geometry" />
        </mxCell>
        <mxCell id="PF1a-tq5lz1KESmNchG3-41" value="&lt;ul style=&quot;padding-left: 18px; margin-left: 0px;&quot;&gt;&lt;li style=&quot;&quot;&gt;Time Dictionary &amp;amp; BBox Classes That Detected&lt;/li&gt;&lt;li style=&quot;&quot;&gt;Time Dictionary Classes That Undetected&lt;/li&gt;&lt;/ul&gt;" style="shape=rectangle;whiteSpace=wrap;html=1;backgroundOutline=1;fontFamily=Dank Mono;labelBackgroundColor=none;align=left;fillColor=#dae8fc;strokeColor=#6c8ebf;" parent="1" vertex="1">
          <mxGeometry x="2397" y="616" width="170" height="80" as="geometry" />
        </mxCell>
        <mxCell id="PF1a-tq5lz1KESmNchG3-42" value="Main_End" style="ellipse;whiteSpace=wrap;html=1;fontStyle=1;labelBorderColor=none;fillColor=#66FFB3;strokeColor=#000000;fontFamily=Dank Mono;fontColor=default;labelBackgroundColor=none;" parent="1" vertex="1">
          <mxGeometry x="2296" y="746" width="90" height="60" as="geometry" />
        </mxCell>
        <mxCell id="PF1a-tq5lz1KESmNchG3-48" value="" style="edgeStyle=orthogonalEdgeStyle;rounded=0;orthogonalLoop=1;jettySize=auto;html=1;" parent="1" source="PF1a-tq5lz1KESmNchG3-45" target="PF1a-tq5lz1KESmNchG3-16" edge="1">
          <mxGeometry relative="1" as="geometry" />
        </mxCell>
        <mxCell id="PF1a-tq5lz1KESmNchG3-45" value="Insert Data to mySQL" style="shape=process;whiteSpace=wrap;html=1;backgroundOutline=1;fontFamily=Dank Mono;fillColor=#66FFB3;strokeColor=#000000;fontColor=default;labelBackgroundColor=none;" parent="1" vertex="1">
          <mxGeometry x="1600" y="538" width="120" height="60" as="geometry" />
        </mxCell>
        <mxCell id="PF1a-tq5lz1KESmNchG3-53" value="" style="edgeStyle=orthogonalEdgeStyle;rounded=0;orthogonalLoop=1;jettySize=auto;html=1;" parent="1" source="PF1a-tq5lz1KESmNchG3-49" target="PF1a-tq5lz1KESmNchG3-30" edge="1">
          <mxGeometry relative="1" as="geometry" />
        </mxCell>
        <mxCell id="PF1a-tq5lz1KESmNchG3-49" value="Connection to mySQL" style="shape=rectangle;whiteSpace=wrap;html=1;backgroundOutline=1;fontFamily=Dank Mono;fontColor=default;labelBackgroundColor=none;" parent="1" vertex="1">
          <mxGeometry x="2187" y="422" width="138" height="33" as="geometry" />
        </mxCell>
        <mxCell id="0K6v0SR-kfQ_nzcjlXtt-7" style="edgeStyle=orthogonalEdgeStyle;rounded=0;orthogonalLoop=1;jettySize=auto;html=1;entryX=0.5;entryY=1;entryDx=0;entryDy=0;" parent="1" source="PF1a-tq5lz1KESmNchG3-61" target="PF1a-tq5lz1KESmNchG3-37" edge="1">
          <mxGeometry relative="1" as="geometry" />
        </mxCell>
        <mxCell id="PF1a-tq5lz1KESmNchG3-61" value="Insert Data to mySQL()" style="shape=rectangle;whiteSpace=wrap;html=1;backgroundOutline=1;fontFamily=Dank Mono;fontColor=default;labelBackgroundColor=none;" parent="1" vertex="1">
          <mxGeometry x="2286.25" y="639.5" width="87.5" height="33" as="geometry" />
        </mxCell>
        <mxCell id="0K6v0SR-kfQ_nzcjlXtt-3" style="edgeStyle=orthogonalEdgeStyle;rounded=0;orthogonalLoop=1;jettySize=auto;html=1;" parent="1" source="0K6v0SR-kfQ_nzcjlXtt-1" target="PF1a-tq5lz1KESmNchG3-42" edge="1">
          <mxGeometry relative="1" as="geometry">
            <Array as="points">
              <mxPoint x="2164" y="720" />
              <mxPoint x="2341" y="720" />
            </Array>
          </mxGeometry>
        </mxCell>
        <mxCell id="0K6v0SR-kfQ_nzcjlXtt-4" value="&lt;font face=&quot;Dank Mono&quot;&gt;Yes&lt;/font&gt;" style="edgeLabel;html=1;align=center;verticalAlign=middle;resizable=0;points=[];" parent="0K6v0SR-kfQ_nzcjlXtt-3" vertex="1" connectable="0">
          <mxGeometry x="-0.478" y="3" relative="1" as="geometry">
            <mxPoint x="-25" y="2" as="offset" />
          </mxGeometry>
        </mxCell>
        <mxCell id="0K6v0SR-kfQ_nzcjlXtt-5" style="edgeStyle=orthogonalEdgeStyle;rounded=0;orthogonalLoop=1;jettySize=auto;html=1;entryX=0;entryY=0.5;entryDx=0;entryDy=0;" parent="1" source="0K6v0SR-kfQ_nzcjlXtt-1" target="PF1a-tq5lz1KESmNchG3-37" edge="1">
          <mxGeometry relative="1" as="geometry" />
        </mxCell>
        <mxCell id="0K6v0SR-kfQ_nzcjlXtt-6" value="&lt;font face=&quot;Dank Mono&quot;&gt;No&lt;/font&gt;" style="edgeLabel;html=1;align=center;verticalAlign=middle;resizable=0;points=[];" parent="0K6v0SR-kfQ_nzcjlXtt-5" vertex="1" connectable="0">
          <mxGeometry x="-0.7762" relative="1" as="geometry">
            <mxPoint as="offset" />
          </mxGeometry>
        </mxCell>
        <mxCell id="0K6v0SR-kfQ_nzcjlXtt-1" value="is keyboard &quot;n&quot;" style="rhombus;whiteSpace=wrap;html=1;fontFamily=Dank Mono;fillColor=#dae8fc;strokeColor=#000000;fontColor=default;labelBackgroundColor=none;" parent="1" vertex="1">
          <mxGeometry x="2104.5" y="575" width="119" height="130" as="geometry" />
        </mxCell>
        <mxCell id="QQNjEQj8tN8XqSvT7jvH-20" style="edgeStyle=orthogonalEdgeStyle;rounded=0;orthogonalLoop=1;jettySize=auto;html=1;entryX=0;entryY=0.5;entryDx=0;entryDy=0;dashed=1;strokeWidth=2;shape=link;dashPattern=1 1;opacity=20;" parent="1" source="QQNjEQj8tN8XqSvT7jvH-1" target="QQNjEQj8tN8XqSvT7jvH-3" edge="1">
          <mxGeometry relative="1" as="geometry" />
        </mxCell>
        <mxCell id="QQNjEQj8tN8XqSvT7jvH-1" value="&lt;b&gt;&lt;font face=&quot;Inconsolata&quot; style=&quot;font-size: 19px;&quot;&gt;Flowchart Algoritma AI_CCTV Anomaly Tolerance (ANTO)&lt;/font&gt;&lt;/b&gt;" style="text;html=1;align=left;verticalAlign=middle;whiteSpace=wrap;rounded=0;fontColor=default;labelBackgroundColor=none;" parent="1" vertex="1">
          <mxGeometry x="2763" y="230" width="267" height="30" as="geometry" />
        </mxCell>
        <mxCell id="QQNjEQj8tN8XqSvT7jvH-5" style="edgeStyle=orthogonalEdgeStyle;rounded=0;orthogonalLoop=1;jettySize=auto;html=1;" parent="1" source="QQNjEQj8tN8XqSvT7jvH-3" target="QQNjEQj8tN8XqSvT7jvH-4" edge="1">
          <mxGeometry relative="1" as="geometry" />
        </mxCell>
        <mxCell id="QQNjEQj8tN8XqSvT7jvH-3" value="Anto_Start" style="ellipse;whiteSpace=wrap;html=1;fontStyle=1;labelBorderColor=none;fillColor=#66FFB3;strokeColor=#000000;fontFamily=Dank Mono;fontColor=default;labelBackgroundColor=none;" parent="1" vertex="1">
          <mxGeometry x="3019" y="297" width="90" height="60" as="geometry" />
        </mxCell>
        <mxCell id="QQNjEQj8tN8XqSvT7jvH-9" style="edgeStyle=orthogonalEdgeStyle;rounded=0;orthogonalLoop=1;jettySize=auto;html=1;entryX=0.5;entryY=0;entryDx=0;entryDy=0;" parent="1" source="QQNjEQj8tN8XqSvT7jvH-4" target="QQNjEQj8tN8XqSvT7jvH-8" edge="1">
          <mxGeometry relative="1" as="geometry" />
        </mxCell>
        <mxCell id="QQNjEQj8tN8XqSvT7jvH-4" value="Read anto time:&amp;nbsp;&lt;div&gt;&lt;ul style=&quot;padding-left: 20px;&quot;&gt;&lt;li&gt;&#39;Idle&#39;&lt;/li&gt;&lt;li&gt;&#39;Offsite&#39;&lt;/li&gt;&lt;/ul&gt;&lt;/div&gt;&lt;div&gt;of each employee&lt;/div&gt;" style="shape=rectangle;whiteSpace=wrap;html=1;backgroundOutline=1;fontFamily=Dank Mono;fontColor=default;labelBackgroundColor=none;align=left;" parent="1" vertex="1">
          <mxGeometry x="2983" y="470" width="162" height="110" as="geometry" />
        </mxCell>
        <mxCell id="QQNjEQj8tN8XqSvT7jvH-6" value="&lt;b&gt;&amp;lt;Example data dictionary&amp;gt;&lt;/b&gt;&lt;br&gt;data = {&#39;Nana&#39; : {&#39;Idle&#39; : 2, &#39;Folding&#39; : 20, &#39;Offsite&#39; : 0}, &lt;span style=&quot;white-space: pre;&quot;&gt;&#x9;&lt;/span&gt;&#39;Waskita&#39;: {&#39;Idle&#39; : 21, &#39;Folding&#39; : 1, &#39;Offsite&#39; : 0}}" style="shape=rectangle;whiteSpace=wrap;html=1;backgroundOutline=1;fontFamily=Dank Mono;fontColor=default;labelBackgroundColor=none;align=left;spacingLeft=7;" parent="1" vertex="1">
          <mxGeometry x="3175" y="308" width="437" height="59" as="geometry" />
        </mxCell>
        <mxCell id="QQNjEQj8tN8XqSvT7jvH-14" style="edgeStyle=orthogonalEdgeStyle;rounded=0;orthogonalLoop=1;jettySize=auto;html=1;" parent="1" source="QQNjEQj8tN8XqSvT7jvH-8" target="QQNjEQj8tN8XqSvT7jvH-13" edge="1">
          <mxGeometry relative="1" as="geometry" />
        </mxCell>
        <mxCell id="QQNjEQj8tN8XqSvT7jvH-16" value="Yes" style="edgeLabel;html=1;align=center;verticalAlign=middle;resizable=0;points=[];" parent="QQNjEQj8tN8XqSvT7jvH-14" vertex="1" connectable="0">
          <mxGeometry x="-0.3802" relative="1" as="geometry">
            <mxPoint as="offset" />
          </mxGeometry>
        </mxCell>
        <mxCell id="QQNjEQj8tN8XqSvT7jvH-8" value="If anto time&lt;div&gt;is bigger than &lt;b&gt;&lt;font color=&quot;#00ff00&quot;&gt;10 seconds&lt;/font&gt;&lt;/b&gt;&lt;/div&gt;" style="rhombus;whiteSpace=wrap;html=1;fontFamily=Dank Mono;fillColor=#dae8fc;strokeColor=#000000;fontColor=default;labelBackgroundColor=none;" parent="1" vertex="1">
          <mxGeometry x="2994.25" y="614" width="139.5" height="136" as="geometry" />
        </mxCell>
        <mxCell id="QQNjEQj8tN8XqSvT7jvH-10" style="edgeStyle=orthogonalEdgeStyle;rounded=0;orthogonalLoop=1;jettySize=auto;html=1;entryX=1;entryY=0.5;entryDx=0;entryDy=0;" parent="1" source="QQNjEQj8tN8XqSvT7jvH-8" target="QQNjEQj8tN8XqSvT7jvH-12" edge="1">
          <mxGeometry relative="1" as="geometry">
            <Array as="points">
              <mxPoint x="3252" y="682" />
              <mxPoint x="3252" y="410" />
              <mxPoint x="3134" y="410" />
            </Array>
          </mxGeometry>
        </mxCell>
        <mxCell id="QQNjEQj8tN8XqSvT7jvH-15" value="No" style="edgeLabel;html=1;align=center;verticalAlign=middle;resizable=0;points=[];" parent="QQNjEQj8tN8XqSvT7jvH-10" vertex="1" connectable="0">
          <mxGeometry x="-0.8886" relative="1" as="geometry">
            <mxPoint as="offset" />
          </mxGeometry>
        </mxCell>
        <mxCell id="QQNjEQj8tN8XqSvT7jvH-12" value="Read detections" style="shape=rectangle;whiteSpace=wrap;html=1;backgroundOutline=1;fontFamily=Dank Mono;fontColor=default;labelBackgroundColor=none;" parent="1" vertex="1">
          <mxGeometry x="2994.75" y="393" width="139" height="33" as="geometry" />
        </mxCell>
        <mxCell id="QQNjEQj8tN8XqSvT7jvH-18" style="edgeStyle=orthogonalEdgeStyle;rounded=0;orthogonalLoop=1;jettySize=auto;html=1;entryX=0.5;entryY=0;entryDx=0;entryDy=0;" parent="1" source="QQNjEQj8tN8XqSvT7jvH-13" target="QQNjEQj8tN8XqSvT7jvH-17" edge="1">
          <mxGeometry relative="1" as="geometry" />
        </mxCell>
        <mxCell id="QQNjEQj8tN8XqSvT7jvH-13" value="Start to store anto time into data dictionary&lt;div&gt;(start from 1 seconds)&lt;/div&gt;" style="shape=rectangle;whiteSpace=wrap;html=1;backgroundOutline=1;fontFamily=Dank Mono;fontColor=default;labelBackgroundColor=none;" parent="1" vertex="1">
          <mxGeometry x="2992.63" y="794" width="143.25" height="87" as="geometry" />
        </mxCell>
        <mxCell id="QQNjEQj8tN8XqSvT7jvH-17" value="Anto_End" style="ellipse;whiteSpace=wrap;html=1;fontStyle=1;labelBorderColor=none;fillColor=#66FFB3;strokeColor=#000000;fontFamily=Dank Mono;fontColor=default;labelBackgroundColor=none;" parent="1" vertex="1">
          <mxGeometry x="3019" y="911" width="90" height="60" as="geometry" />
        </mxCell>
        <mxCell id="QQNjEQj8tN8XqSvT7jvH-19" style="edgeStyle=orthogonalEdgeStyle;rounded=0;orthogonalLoop=1;jettySize=auto;html=1;exitX=0.5;exitY=1;exitDx=0;exitDy=0;" parent="1" source="QQNjEQj8tN8XqSvT7jvH-1" target="QQNjEQj8tN8XqSvT7jvH-1" edge="1">
          <mxGeometry relative="1" as="geometry" />
        </mxCell>
        <mxCell id="IhbXkQpjAvLrspOXqXfY-1" value="&lt;b&gt;&lt;font face=&quot;Inconsolata&quot; style=&quot;font-size: 19px;&quot;&gt;Flowchart Python Script AI_CCTV BSML4 with Object Oriented Programming&lt;/font&gt;&lt;/b&gt;" style="text;html=1;align=left;verticalAlign=middle;whiteSpace=wrap;rounded=0;fontColor=default;labelBackgroundColor=none;" parent="1" vertex="1">
          <mxGeometry x="4139" y="270" width="390" height="30" as="geometry" />
        </mxCell>
        <mxCell id="HP_wqnuHkrx8samz9bTN-2" style="edgeStyle=orthogonalEdgeStyle;rounded=0;orthogonalLoop=1;jettySize=auto;html=1;entryX=0.5;entryY=0;entryDx=0;entryDy=0;fontColor=default;labelBackgroundColor=none;" edge="1" parent="1" source="HP_wqnuHkrx8samz9bTN-3" target="HP_wqnuHkrx8samz9bTN-5">
          <mxGeometry relative="1" as="geometry">
            <Array as="points">
              <mxPoint x="3749.5" y="505" />
              <mxPoint x="3595.5" y="505" />
            </Array>
          </mxGeometry>
        </mxCell>
        <mxCell id="HP_wqnuHkrx8samz9bTN-3" value="Start" style="ellipse;whiteSpace=wrap;html=1;fontStyle=1;labelBorderColor=none;fillColor=#f8cecc;strokeColor=#b85450;fontFamily=Dank Mono;fontColor=default;labelBackgroundColor=none;" vertex="1" parent="1">
          <mxGeometry x="3704" y="426" width="90" height="60" as="geometry" />
        </mxCell>
        <mxCell id="HP_wqnuHkrx8samz9bTN-4" value="" style="edgeStyle=orthogonalEdgeStyle;rounded=0;orthogonalLoop=1;jettySize=auto;html=1;fontColor=default;labelBackgroundColor=none;" edge="1" parent="1" source="HP_wqnuHkrx8samz9bTN-5" target="HP_wqnuHkrx8samz9bTN-7">
          <mxGeometry relative="1" as="geometry" />
        </mxCell>
        <mxCell id="HP_wqnuHkrx8samz9bTN-5" value="Import Library" style="shape=process;whiteSpace=wrap;html=1;backgroundOutline=1;fontFamily=Dank Mono;fillColor=#66FFB3;strokeColor=#000000;fontColor=default;labelBackgroundColor=none;" vertex="1" parent="1">
          <mxGeometry x="3535" y="534" width="120" height="60" as="geometry" />
        </mxCell>
        <mxCell id="HP_wqnuHkrx8samz9bTN-6" style="edgeStyle=orthogonalEdgeStyle;rounded=0;orthogonalLoop=1;jettySize=auto;html=1;entryX=0;entryY=0.5;entryDx=0;entryDy=0;fontColor=default;labelBackgroundColor=none;" edge="1" parent="1" source="HP_wqnuHkrx8samz9bTN-7" target="HP_wqnuHkrx8samz9bTN-9">
          <mxGeometry relative="1" as="geometry" />
        </mxCell>
        <mxCell id="HP_wqnuHkrx8samz9bTN-7" value="Initialize Video Capture" style="shape=process;whiteSpace=wrap;html=1;backgroundOutline=1;fontFamily=Dank Mono;fillColor=#66FFB3;strokeColor=#000000;fontColor=default;labelBackgroundColor=none;" vertex="1" parent="1">
          <mxGeometry x="3688" y="534" width="122" height="61" as="geometry" />
        </mxCell>
        <mxCell id="HP_wqnuHkrx8samz9bTN-8" value="" style="edgeStyle=orthogonalEdgeStyle;rounded=0;orthogonalLoop=1;jettySize=auto;html=1;fontColor=default;labelBackgroundColor=none;" edge="1" parent="1" source="HP_wqnuHkrx8samz9bTN-9" target="HP_wqnuHkrx8samz9bTN-11">
          <mxGeometry relative="1" as="geometry" />
        </mxCell>
        <mxCell id="HP_wqnuHkrx8samz9bTN-9" value="Process Detection" style="shape=process;whiteSpace=wrap;html=1;backgroundOutline=1;fontFamily=Dank Mono;fillColor=#66FFB3;strokeColor=#000000;fontColor=default;labelBackgroundColor=none;" vertex="1" parent="1">
          <mxGeometry x="3842" y="535" width="120" height="60" as="geometry" />
        </mxCell>
        <mxCell id="HP_wqnuHkrx8samz9bTN-10" value="" style="edgeStyle=orthogonalEdgeStyle;rounded=0;orthogonalLoop=1;jettySize=auto;html=1;fontColor=default;labelBackgroundColor=none;" edge="1" parent="1" source="HP_wqnuHkrx8samz9bTN-11" target="HP_wqnuHkrx8samz9bTN-13">
          <mxGeometry relative="1" as="geometry" />
        </mxCell>
        <mxCell id="HP_wqnuHkrx8samz9bTN-11" value="Update Data Table" style="shape=process;whiteSpace=wrap;html=1;backgroundOutline=1;fontFamily=Dank Mono;fillColor=#66FFB3;strokeColor=#000000;fontColor=default;labelBackgroundColor=none;" vertex="1" parent="1">
          <mxGeometry x="3842.5" y="622" width="120" height="60" as="geometry" />
        </mxCell>
        <mxCell id="HP_wqnuHkrx8samz9bTN-12" value="" style="edgeStyle=orthogonalEdgeStyle;rounded=0;orthogonalLoop=1;jettySize=auto;html=1;fontColor=default;labelBackgroundColor=none;" edge="1" parent="1" source="HP_wqnuHkrx8samz9bTN-13" target="HP_wqnuHkrx8samz9bTN-15">
          <mxGeometry relative="1" as="geometry" />
        </mxCell>
        <mxCell id="HP_wqnuHkrx8samz9bTN-13" value="Calculate Percentages" style="shape=process;whiteSpace=wrap;html=1;backgroundOutline=1;fontFamily=Dank Mono;fillColor=#66FFB3;strokeColor=#000000;fontColor=default;labelBackgroundColor=none;" vertex="1" parent="1">
          <mxGeometry x="3689" y="622" width="120" height="60" as="geometry" />
        </mxCell>
        <mxCell id="HP_wqnuHkrx8samz9bTN-14" value="" style="edgeStyle=orthogonalEdgeStyle;rounded=0;orthogonalLoop=1;jettySize=auto;html=1;" edge="1" parent="1" source="HP_wqnuHkrx8samz9bTN-15" target="HP_wqnuHkrx8samz9bTN-29">
          <mxGeometry relative="1" as="geometry" />
        </mxCell>
        <mxCell id="HP_wqnuHkrx8samz9bTN-15" value="Draw Table" style="shape=process;whiteSpace=wrap;html=1;backgroundOutline=1;fontFamily=Dank Mono;fillColor=#66FFB3;strokeColor=#000000;fontColor=default;labelBackgroundColor=none;" vertex="1" parent="1">
          <mxGeometry x="3535" y="622" width="120" height="60" as="geometry" />
        </mxCell>
        <mxCell id="HP_wqnuHkrx8samz9bTN-16" style="edgeStyle=orthogonalEdgeStyle;rounded=0;orthogonalLoop=1;jettySize=auto;html=1;entryX=0.5;entryY=0;entryDx=0;entryDy=0;" edge="1" parent="1" source="HP_wqnuHkrx8samz9bTN-17" target="HP_wqnuHkrx8samz9bTN-22">
          <mxGeometry relative="1" as="geometry" />
        </mxCell>
        <mxCell id="HP_wqnuHkrx8samz9bTN-17" value="Main" style="shape=process;whiteSpace=wrap;html=1;backgroundOutline=1;fontFamily=Dank Mono;fillColor=#66FFB3;strokeColor=#000000;fontColor=default;labelBackgroundColor=none;" vertex="1" parent="1">
          <mxGeometry x="3688.5" y="710" width="120" height="60" as="geometry" />
        </mxCell>
        <mxCell id="HP_wqnuHkrx8samz9bTN-18" value="" style="edgeStyle=orthogonalEdgeStyle;rounded=0;orthogonalLoop=1;jettySize=auto;html=1;fontColor=default;labelBackgroundColor=none;" edge="1" parent="1" source="HP_wqnuHkrx8samz9bTN-22" target="HP_wqnuHkrx8samz9bTN-24">
          <mxGeometry relative="1" as="geometry">
            <Array as="points">
              <mxPoint x="3872" y="867" />
            </Array>
          </mxGeometry>
        </mxCell>
        <mxCell id="HP_wqnuHkrx8samz9bTN-19" value="Yes" style="edgeLabel;html=1;align=center;verticalAlign=middle;resizable=0;points=[];fontFamily=Dank Mono;fontColor=default;labelBackgroundColor=none;" vertex="1" connectable="0" parent="HP_wqnuHkrx8samz9bTN-18">
          <mxGeometry x="-0.3" y="3" relative="1" as="geometry">
            <mxPoint x="-29" y="-6" as="offset" />
          </mxGeometry>
        </mxCell>
        <mxCell id="HP_wqnuHkrx8samz9bTN-20" value="" style="edgeStyle=orthogonalEdgeStyle;rounded=0;orthogonalLoop=1;jettySize=auto;html=1;fontColor=default;labelBackgroundColor=none;" edge="1" parent="1" source="HP_wqnuHkrx8samz9bTN-22" target="HP_wqnuHkrx8samz9bTN-27">
          <mxGeometry relative="1" as="geometry" />
        </mxCell>
        <mxCell id="HP_wqnuHkrx8samz9bTN-21" value="No" style="edgeLabel;html=1;align=center;verticalAlign=middle;resizable=0;points=[];fontColor=default;labelBackgroundColor=none;fontFamily=Dank Mono;fontSource=https%3A%2F%2Ffonts.googleapis.com%2Fcss%3Ffamily%3DDank%2BMono;" vertex="1" connectable="0" parent="HP_wqnuHkrx8samz9bTN-20">
          <mxGeometry x="-0.6073" y="-2" relative="1" as="geometry">
            <mxPoint x="15" y="-2" as="offset" />
          </mxGeometry>
        </mxCell>
        <mxCell id="HP_wqnuHkrx8samz9bTN-22" value="Is __name__&lt;div&gt;== &quot;__main__&quot;&lt;/div&gt;" style="rhombus;whiteSpace=wrap;html=1;fontFamily=Dank Mono;fillColor=#dae8fc;strokeColor=#000000;fontColor=default;labelBackgroundColor=none;" vertex="1" parent="1">
          <mxGeometry x="3689" y="802" width="119" height="130" as="geometry" />
        </mxCell>
        <mxCell id="HP_wqnuHkrx8samz9bTN-23" value="" style="edgeStyle=orthogonalEdgeStyle;rounded=0;orthogonalLoop=1;jettySize=auto;html=1;fontColor=default;labelBackgroundColor=none;" edge="1" parent="1" source="HP_wqnuHkrx8samz9bTN-24" target="HP_wqnuHkrx8samz9bTN-26">
          <mxGeometry relative="1" as="geometry" />
        </mxCell>
        <mxCell id="HP_wqnuHkrx8samz9bTN-24" value="&lt;ul style=&quot;padding-left: 18px; margin-right: 2px; margin-top: 12px; font-size: 12px;&quot;&gt;&lt;li style=&quot;font-size: 12px;&quot;&gt;Video Path&lt;/li&gt;&lt;li style=&quot;font-size: 12px;&quot;&gt;Models Path&lt;/li&gt;&lt;li style=&quot;font-size: 12px;&quot;&gt;Confidences Threshold&lt;/li&gt;&lt;li style=&quot;font-size: 12px;&quot;&gt;Video Scale&lt;/li&gt;&lt;/ul&gt;" style="shape=rectangle;whiteSpace=wrap;html=1;backgroundOutline=1;align=left;spacing=2;fontFamily=Dank Mono;fontSize=12;fontColor=default;labelBackgroundColor=none;" vertex="1" parent="1">
          <mxGeometry x="3847" y="709" width="111" height="83" as="geometry" />
        </mxCell>
        <mxCell id="HP_wqnuHkrx8samz9bTN-25" style="edgeStyle=orthogonalEdgeStyle;rounded=0;orthogonalLoop=1;jettySize=auto;html=1;entryX=0.5;entryY=0;entryDx=0;entryDy=0;" edge="1" parent="1" source="HP_wqnuHkrx8samz9bTN-26" target="HP_wqnuHkrx8samz9bTN-27">
          <mxGeometry relative="1" as="geometry">
            <Array as="points">
              <mxPoint x="3902" y="967" />
              <mxPoint x="3749" y="967" />
            </Array>
          </mxGeometry>
        </mxCell>
        <mxCell id="HP_wqnuHkrx8samz9bTN-26" value="Main()" style="shape=rectangle;whiteSpace=wrap;html=1;backgroundOutline=1;fontFamily=Dank Mono;fontColor=default;labelBackgroundColor=none;" vertex="1" parent="1">
          <mxGeometry x="3858.25" y="899" width="87.5" height="33" as="geometry" />
        </mxCell>
        <mxCell id="HP_wqnuHkrx8samz9bTN-27" value="&lt;b&gt;End&lt;/b&gt;" style="ellipse;whiteSpace=wrap;html=1;labelBorderColor=none;fillColor=#f8cecc;strokeColor=#b85450;fontColor=default;labelBackgroundColor=none;" vertex="1" parent="1">
          <mxGeometry x="3704" y="993" width="90" height="60" as="geometry" />
        </mxCell>
        <mxCell id="HP_wqnuHkrx8samz9bTN-28" value="" style="edgeStyle=orthogonalEdgeStyle;rounded=0;orthogonalLoop=1;jettySize=auto;html=1;" edge="1" parent="1" source="HP_wqnuHkrx8samz9bTN-29" target="HP_wqnuHkrx8samz9bTN-17">
          <mxGeometry relative="1" as="geometry" />
        </mxCell>
        <mxCell id="HP_wqnuHkrx8samz9bTN-29" value="Insert Data to mySQL" style="shape=process;whiteSpace=wrap;html=1;backgroundOutline=1;fontFamily=Dank Mono;fillColor=#66FFB3;strokeColor=#000000;fontColor=default;labelBackgroundColor=none;" vertex="1" parent="1">
          <mxGeometry x="3535" y="710" width="120" height="60" as="geometry" />
        </mxCell>
        <mxCell id="HP_wqnuHkrx8samz9bTN-35" style="edgeStyle=orthogonalEdgeStyle;rounded=0;orthogonalLoop=1;jettySize=auto;html=1;entryX=0.5;entryY=0;entryDx=0;entryDy=0;" edge="1" parent="1" source="HP_wqnuHkrx8samz9bTN-30" target="HP_wqnuHkrx8samz9bTN-31">
          <mxGeometry relative="1" as="geometry">
            <Array as="points">
              <mxPoint x="4451.5" y="453" />
              <mxPoint x="4197.5" y="453" />
            </Array>
          </mxGeometry>
        </mxCell>
        <mxCell id="HP_wqnuHkrx8samz9bTN-36" style="edgeStyle=orthogonalEdgeStyle;rounded=0;orthogonalLoop=1;jettySize=auto;html=1;" edge="1" parent="1" source="HP_wqnuHkrx8samz9bTN-30" target="HP_wqnuHkrx8samz9bTN-32">
          <mxGeometry relative="1" as="geometry" />
        </mxCell>
        <mxCell id="HP_wqnuHkrx8samz9bTN-37" style="edgeStyle=orthogonalEdgeStyle;rounded=0;orthogonalLoop=1;jettySize=auto;html=1;" edge="1" parent="1" source="HP_wqnuHkrx8samz9bTN-30" target="HP_wqnuHkrx8samz9bTN-33">
          <mxGeometry relative="1" as="geometry">
            <Array as="points">
              <mxPoint x="4451.5" y="453" />
              <mxPoint x="4535.5" y="453" />
            </Array>
          </mxGeometry>
        </mxCell>
        <mxCell id="HP_wqnuHkrx8samz9bTN-38" style="edgeStyle=orthogonalEdgeStyle;rounded=0;orthogonalLoop=1;jettySize=auto;html=1;" edge="1" parent="1" source="HP_wqnuHkrx8samz9bTN-30" target="HP_wqnuHkrx8samz9bTN-34">
          <mxGeometry relative="1" as="geometry">
            <Array as="points">
              <mxPoint x="4451.5" y="453" />
              <mxPoint x="4705.5" y="453" />
            </Array>
          </mxGeometry>
        </mxCell>
        <mxCell id="HP_wqnuHkrx8samz9bTN-30" value="Start" style="ellipse;whiteSpace=wrap;html=1;fontStyle=1;labelBorderColor=none;fillColor=#f8cecc;strokeColor=#b85450;fontFamily=Dank Mono;fontColor=default;labelBackgroundColor=none;" vertex="1" parent="1">
          <mxGeometry x="4406.5" y="365" width="90" height="60" as="geometry" />
        </mxCell>
        <mxCell id="HP_wqnuHkrx8samz9bTN-40" style="edgeStyle=orthogonalEdgeStyle;rounded=0;orthogonalLoop=1;jettySize=auto;html=1;entryX=0.5;entryY=0;entryDx=0;entryDy=0;" edge="1" parent="1" source="HP_wqnuHkrx8samz9bTN-31" target="HP_wqnuHkrx8samz9bTN-39">
          <mxGeometry relative="1" as="geometry">
            <Array as="points">
              <mxPoint x="4197.5" y="571" />
              <mxPoint x="4451.5" y="571" />
            </Array>
          </mxGeometry>
        </mxCell>
        <mxCell id="HP_wqnuHkrx8samz9bTN-31" value="Class AICCTV" style="shape=process;whiteSpace=wrap;html=1;backgroundOutline=1;fontFamily=Dank Mono;fillColor=#66FFB3;strokeColor=#000000;fontColor=default;labelBackgroundColor=none;" vertex="1" parent="1">
          <mxGeometry x="4137" y="481" width="122" height="61" as="geometry" />
        </mxCell>
        <mxCell id="HP_wqnuHkrx8samz9bTN-41" style="edgeStyle=orthogonalEdgeStyle;rounded=0;orthogonalLoop=1;jettySize=auto;html=1;entryX=0.5;entryY=0;entryDx=0;entryDy=0;" edge="1" parent="1" source="HP_wqnuHkrx8samz9bTN-32" target="HP_wqnuHkrx8samz9bTN-39">
          <mxGeometry relative="1" as="geometry">
            <Array as="points">
              <mxPoint x="4367.5" y="571" />
              <mxPoint x="4451.5" y="571" />
            </Array>
          </mxGeometry>
        </mxCell>
        <mxCell id="HP_wqnuHkrx8samz9bTN-32" value="Class REPORT" style="shape=process;whiteSpace=wrap;html=1;backgroundOutline=1;fontFamily=Dank Mono;fillColor=#66FFB3;strokeColor=#000000;fontColor=default;labelBackgroundColor=none;" vertex="1" parent="1">
          <mxGeometry x="4306" y="481" width="122" height="61" as="geometry" />
        </mxCell>
        <mxCell id="HP_wqnuHkrx8samz9bTN-42" style="edgeStyle=orthogonalEdgeStyle;rounded=0;orthogonalLoop=1;jettySize=auto;html=1;" edge="1" parent="1" source="HP_wqnuHkrx8samz9bTN-33" target="HP_wqnuHkrx8samz9bTN-39">
          <mxGeometry relative="1" as="geometry">
            <Array as="points">
              <mxPoint x="4535.5" y="571" />
              <mxPoint x="4451.5" y="571" />
            </Array>
          </mxGeometry>
        </mxCell>
        <mxCell id="HP_wqnuHkrx8samz9bTN-33" value="Class SAVER" style="shape=process;whiteSpace=wrap;html=1;backgroundOutline=1;fontFamily=Dank Mono;fillColor=#66FFB3;strokeColor=#000000;fontColor=default;labelBackgroundColor=none;" vertex="1" parent="1">
          <mxGeometry x="4475" y="482" width="122" height="61" as="geometry" />
        </mxCell>
        <mxCell id="HP_wqnuHkrx8samz9bTN-43" style="edgeStyle=orthogonalEdgeStyle;rounded=0;orthogonalLoop=1;jettySize=auto;html=1;entryX=0.5;entryY=0;entryDx=0;entryDy=0;" edge="1" parent="1" source="HP_wqnuHkrx8samz9bTN-34" target="HP_wqnuHkrx8samz9bTN-39">
          <mxGeometry relative="1" as="geometry">
            <Array as="points">
              <mxPoint x="4705.5" y="571" />
              <mxPoint x="4451.5" y="571" />
            </Array>
          </mxGeometry>
        </mxCell>
        <mxCell id="HP_wqnuHkrx8samz9bTN-34" value="Function Capture Frame" style="shape=process;whiteSpace=wrap;html=1;backgroundOutline=1;fontFamily=Dank Mono;fillColor=#66FFB3;strokeColor=#000000;fontColor=default;labelBackgroundColor=none;" vertex="1" parent="1">
          <mxGeometry x="4644" y="482" width="122" height="61" as="geometry" />
        </mxCell>
        <mxCell id="HP_wqnuHkrx8samz9bTN-45" style="edgeStyle=orthogonalEdgeStyle;rounded=0;orthogonalLoop=1;jettySize=auto;html=1;entryX=0.5;entryY=0;entryDx=0;entryDy=0;" edge="1" parent="1" source="HP_wqnuHkrx8samz9bTN-39" target="HP_wqnuHkrx8samz9bTN-44">
          <mxGeometry relative="1" as="geometry" />
        </mxCell>
        <mxCell id="HP_wqnuHkrx8samz9bTN-39" value="function&lt;div&gt;Main&lt;/div&gt;" style="shape=process;whiteSpace=wrap;html=1;backgroundOutline=1;fontFamily=Dank Mono;fillColor=#66FFB3;strokeColor=#000000;fontColor=default;labelBackgroundColor=none;" vertex="1" parent="1">
          <mxGeometry x="4390.5" y="592" width="122" height="61" as="geometry" />
        </mxCell>
        <mxCell id="HP_wqnuHkrx8samz9bTN-44" value="End" style="ellipse;whiteSpace=wrap;html=1;fontStyle=1;labelBorderColor=none;fillColor=#f8cecc;strokeColor=#b85450;fontFamily=Dank Mono;fontColor=default;labelBackgroundColor=none;" vertex="1" parent="1">
          <mxGeometry x="4406.5" y="680" width="90" height="60" as="geometry" />
        </mxCell>
        <mxCell id="HP_wqnuHkrx8samz9bTN-49" style="edgeStyle=orthogonalEdgeStyle;rounded=0;orthogonalLoop=1;jettySize=auto;html=1;entryX=0.5;entryY=0;entryDx=0;entryDy=0;" edge="1" parent="1" source="HP_wqnuHkrx8samz9bTN-46" target="HP_wqnuHkrx8samz9bTN-48">
          <mxGeometry relative="1" as="geometry" />
        </mxCell>
        <mxCell id="HP_wqnuHkrx8samz9bTN-46" value="Main_Start" style="ellipse;whiteSpace=wrap;html=1;fontStyle=1;labelBorderColor=none;fillColor=#66FFB3;strokeColor=#000000;fontFamily=Dank Mono;fontColor=default;labelBackgroundColor=none;" vertex="1" parent="1">
          <mxGeometry x="4967" y="292" width="90" height="60" as="geometry" />
        </mxCell>
        <mxCell id="HP_wqnuHkrx8samz9bTN-48" value="Initialize time&lt;div&gt;and classes&lt;/div&gt;" style="shape=hexagon;whiteSpace=wrap;html=1;backgroundOutline=1;fontFamily=Dank Mono;fontColor=default;labelBackgroundColor=none;size=0.15570400822199196;" vertex="1" parent="1">
          <mxGeometry x="4936.25" y="397" width="151.5" height="33" as="geometry" />
        </mxCell>
        <mxCell id="HP_wqnuHkrx8samz9bTN-57" style="edgeStyle=orthogonalEdgeStyle;rounded=0;orthogonalLoop=1;jettySize=auto;html=1;entryX=0.5;entryY=0;entryDx=0;entryDy=0;exitX=0.5;exitY=1;exitDx=0;exitDy=0;" edge="1" parent="1" source="HP_wqnuHkrx8samz9bTN-48" target="HP_wqnuHkrx8samz9bTN-56">
          <mxGeometry relative="1" as="geometry">
            <mxPoint x="5012" y="490" as="sourcePoint" />
          </mxGeometry>
        </mxCell>
        <mxCell id="HP_wqnuHkrx8samz9bTN-55" style="edgeStyle=orthogonalEdgeStyle;rounded=0;orthogonalLoop=1;jettySize=auto;html=1;exitX=0.5;exitY=1;exitDx=0;exitDy=0;" edge="1" parent="1">
          <mxGeometry relative="1" as="geometry">
            <mxPoint x="5012.005" y="490" as="sourcePoint" />
            <mxPoint x="5012.005" y="490" as="targetPoint" />
          </mxGeometry>
        </mxCell>
        <mxCell id="HP_wqnuHkrx8samz9bTN-60" style="edgeStyle=orthogonalEdgeStyle;rounded=0;orthogonalLoop=1;jettySize=auto;html=1;entryX=0.5;entryY=0;entryDx=0;entryDy=0;" edge="1" parent="1" source="HP_wqnuHkrx8samz9bTN-56" target="HP_wqnuHkrx8samz9bTN-58">
          <mxGeometry relative="1" as="geometry" />
        </mxCell>
        <mxCell id="HP_wqnuHkrx8samz9bTN-56" value="Start capturing&amp;nbsp;&lt;span style=&quot;background-color: initial;&quot;&gt;frame with threading &amp;amp; queue&lt;/span&gt;" style="whiteSpace=wrap;html=1;backgroundOutline=1;fontFamily=Dank Mono;fontColor=default;labelBackgroundColor=none;size=0.15570400822199196;" vertex="1" parent="1">
          <mxGeometry x="4932.12" y="459" width="159.75" height="33" as="geometry" />
        </mxCell>
        <mxCell id="HP_wqnuHkrx8samz9bTN-62" style="edgeStyle=orthogonalEdgeStyle;rounded=0;orthogonalLoop=1;jettySize=auto;html=1;entryX=0.5;entryY=0;entryDx=0;entryDy=0;" edge="1" parent="1" source="HP_wqnuHkrx8samz9bTN-58" target="HP_wqnuHkrx8samz9bTN-61">
          <mxGeometry relative="1" as="geometry" />
        </mxCell>
        <mxCell id="HP_wqnuHkrx8samz9bTN-58" value="Load mask if exist" style="shape=p;whiteSpace=wrap;html=1;backgroundOutline=1;fontFamily=Dank Mono;fontColor=default;labelBackgroundColor=none;size=0.15570400822199196;" vertex="1" parent="1">
          <mxGeometry x="4932.12" y="525.5" width="159.75" height="33" as="geometry" />
        </mxCell>
        <mxCell id="HP_wqnuHkrx8samz9bTN-65" value="" style="edgeStyle=orthogonalEdgeStyle;rounded=0;orthogonalLoop=1;jettySize=auto;html=1;" edge="1" parent="1" source="HP_wqnuHkrx8samz9bTN-61" target="HP_wqnuHkrx8samz9bTN-63">
          <mxGeometry relative="1" as="geometry" />
        </mxCell>
        <mxCell id="HP_wqnuHkrx8samz9bTN-66" value="Yes" style="edgeLabel;html=1;align=center;verticalAlign=middle;resizable=0;points=[];" vertex="1" connectable="0" parent="HP_wqnuHkrx8samz9bTN-65">
          <mxGeometry x="-0.17" relative="1" as="geometry">
            <mxPoint as="offset" />
          </mxGeometry>
        </mxCell>
        <mxCell id="HP_wqnuHkrx8samz9bTN-77" style="edgeStyle=orthogonalEdgeStyle;rounded=0;orthogonalLoop=1;jettySize=auto;html=1;entryX=0.5;entryY=0;entryDx=0;entryDy=0;" edge="1" parent="1" source="HP_wqnuHkrx8samz9bTN-61" target="HP_wqnuHkrx8samz9bTN-76">
          <mxGeometry relative="1" as="geometry" />
        </mxCell>
        <mxCell id="HP_wqnuHkrx8samz9bTN-61" value="Looping while&lt;div&gt;cap is opened &amp;amp; frame is available&lt;/div&gt;" style="rhombus;whiteSpace=wrap;html=1;fontFamily=Dank Mono;fillColor=#dae8fc;strokeColor=#000000;fontColor=default;labelBackgroundColor=none;" vertex="1" parent="1">
          <mxGeometry x="4932.87" y="595" width="159" height="152.5" as="geometry" />
        </mxCell>
        <mxCell id="HP_wqnuHkrx8samz9bTN-68" style="edgeStyle=orthogonalEdgeStyle;rounded=0;orthogonalLoop=1;jettySize=auto;html=1;entryX=0.5;entryY=0;entryDx=0;entryDy=0;" edge="1" parent="1" source="HP_wqnuHkrx8samz9bTN-63" target="HP_wqnuHkrx8samz9bTN-67">
          <mxGeometry relative="1" as="geometry" />
        </mxCell>
        <mxCell id="HP_wqnuHkrx8samz9bTN-63" value="Adjusting size of mask" style="shape=p;whiteSpace=wrap;html=1;backgroundOutline=1;fontFamily=Dank Mono;fontColor=default;labelBackgroundColor=none;size=0.15570400822199196;" vertex="1" parent="1">
          <mxGeometry x="4932.12" y="788.5" width="159.75" height="33" as="geometry" />
        </mxCell>
        <mxCell id="HP_wqnuHkrx8samz9bTN-73" style="edgeStyle=orthogonalEdgeStyle;rounded=0;orthogonalLoop=1;jettySize=auto;html=1;entryX=0.5;entryY=0;entryDx=0;entryDy=0;" edge="1" parent="1" source="HP_wqnuHkrx8samz9bTN-67" target="HP_wqnuHkrx8samz9bTN-72">
          <mxGeometry relative="1" as="geometry" />
        </mxCell>
        <mxCell id="HP_wqnuHkrx8samz9bTN-67" value="Get value from process&lt;div&gt;frame (class AICCTV)&lt;/div&gt;" style="shape=parallelogram;whiteSpace=wrap;html=1;backgroundOutline=1;fontFamily=Dank Mono;fontColor=default;labelBackgroundColor=none;size=0.06257355890300685;" vertex="1" parent="1">
          <mxGeometry x="4926.73" y="850.5" width="171.27" height="33" as="geometry" />
        </mxCell>
        <mxCell id="HP_wqnuHkrx8samz9bTN-75" value="" style="edgeStyle=orthogonalEdgeStyle;rounded=0;orthogonalLoop=1;jettySize=auto;html=1;" edge="1" parent="1" source="HP_wqnuHkrx8samz9bTN-72" target="HP_wqnuHkrx8samz9bTN-74">
          <mxGeometry relative="1" as="geometry" />
        </mxCell>
        <mxCell id="HP_wqnuHkrx8samz9bTN-72" value="Export results and store the datas" style="shape=p;whiteSpace=wrap;html=1;backgroundOutline=1;fontFamily=Dank Mono;fontColor=default;labelBackgroundColor=none;size=0.15570400822199196;" vertex="1" parent="1">
          <mxGeometry x="4932.12" y="911" width="159.75" height="33" as="geometry" />
        </mxCell>
        <mxCell id="HP_wqnuHkrx8samz9bTN-74" value="Main_End" style="ellipse;whiteSpace=wrap;html=1;fontStyle=1;labelBorderColor=none;fillColor=#66FFB3;strokeColor=#000000;fontFamily=Dank Mono;fontColor=default;labelBackgroundColor=none;" vertex="1" parent="1">
          <mxGeometry x="4967" y="971" width="90" height="60" as="geometry" />
        </mxCell>
        <mxCell id="HP_wqnuHkrx8samz9bTN-78" style="edgeStyle=orthogonalEdgeStyle;rounded=0;orthogonalLoop=1;jettySize=auto;html=1;entryX=0.5;entryY=0;entryDx=0;entryDy=0;" edge="1" parent="1" source="HP_wqnuHkrx8samz9bTN-76" target="HP_wqnuHkrx8samz9bTN-74">
          <mxGeometry relative="1" as="geometry">
            <Array as="points">
              <mxPoint x="4852" y="956" />
              <mxPoint x="5012" y="956" />
            </Array>
          </mxGeometry>
        </mxCell>
        <mxCell id="HP_wqnuHkrx8samz9bTN-76" value="Program is interupt and break looping" style="shape=p;whiteSpace=wrap;html=1;backgroundOutline=1;fontFamily=Dank Mono;fontColor=default;labelBackgroundColor=none;size=0.15570400822199196;" vertex="1" parent="1">
          <mxGeometry x="4772.37" y="725" width="159.75" height="33" as="geometry" />
        </mxCell>
      </root>
    </mxGraphModel>
  </diagram>
</mxfile>
